# Blender 5.0.1
# www.blender.org
mtllib bricks.mtl
o Cylinder
v 0.000000 0.003138 -0.073500
v 0.000000 3.003137 -0.073500
v 0.051972 0.003138 -0.051972
v 0.051972 3.003137 -0.051972
v 0.073500 0.003138 0.000000
v 0.073500 3.003137 0.000000
v 0.051972 0.003138 0.051972
v 0.051972 3.003137 0.051972
v 0.000000 0.003138 0.073500
v 0.000000 3.003137 0.073500
v -0.051972 0.003138 0.051972
v -0.051972 3.003137 0.051972
v -0.073500 0.003138 0.000000
v -0.073500 3.003137 0.000000
v -0.051972 0.003138 -0.051972
v -0.051972 3.003137 -0.051972
vn -0.0000 -0.6884 -0.7254
vn -0.0000 0.6884 -0.7254
vn 0.5129 -0.6884 -0.5129
vn 0.5129 0.6884 -0.5129
vn 0.7254 -0.6884 -0.0000
vn 0.7254 0.6884 -0.0000
vn 0.5129 -0.6884 0.5129
vn 0.5129 0.6884 0.5129
vn -0.0000 -0.6884 0.7254
vn -0.0000 0.6884 0.7254
vn -0.5129 -0.6884 0.5129
vn -0.5129 0.6884 0.5129
vn -0.7254 -0.6884 -0.0000
vn -0.7254 0.6884 -0.0000
vn -0.5129 -0.6884 -0.5129
vn -0.5129 0.6884 -0.5129
vt 1.000000 0.500000
vt 1.000000 1.000000
vt 0.875000 1.000000
vt 0.875000 0.500000
vt 0.750000 1.000000
vt 0.750000 0.500000
vt 0.625000 1.000000
vt 0.625000 0.500000
vt 0.500000 1.000000
vt 0.500000 0.500000
vt 0.375000 1.000000
vt 0.375000 0.500000
vt 0.250000 1.000000
vt 0.250000 0.500000
vt 0.419706 0.419706
vt 0.250000 0.490000
vt 0.080294 0.419706
vt 0.010000 0.250000
vt 0.080294 0.080294
vt 0.250000 0.010000
vt 0.419706 0.080294
vt 0.490000 0.250000
vt 0.125000 1.000000
vt 0.125000 0.500000
vt 0.000000 1.000000
vt 0.000000 0.500000
vt 0.750000 0.490000
vt 0.919706 0.419706
vt 0.990000 0.250000
vt 0.919706 0.080294
vt 0.750000 0.010000
vt 0.580294 0.080294
vt 0.510000 0.250000
vt 0.580294 0.419706
s 1
usemtl Material
f 1/1/1 2/2/2 4/3/4 3/4/3
f 3/4/3 4/3/4 6/5/6 5/6/5
f 5/6/5 6/5/6 8/7/8 7/8/7
f 7/8/7 8/7/8 10/9/10 9/10/9
f 9/10/9 10/9/10 12/11/12 11/12/11
f 11/12/11 12/11/12 14/13/14 13/14/13
f 4/15/4 2/16/2 16/17/16 14/18/14 12/19/12 10/20/10 8/21/8 6/22/6
f 13/14/13 14/13/14 16/23/16 15/24/15
f 15/24/15 16/23/16 2/25/2 1/26/1
f 1/27/1 3/28/3 5/29/5 7/30/7 9/31/9 11/32/11 13/33/13 15/34/15
o Circle
v 0.075797 2.385260 -0.480000
v 0.075797 2.568948 -0.443462
v 0.075797 2.724671 -0.339411
v 0.075797 2.828722 -0.183688
v 0.075797 2.865260 0.000000
v 0.075797 2.828722 0.183688
v 0.075797 2.724671 0.339411
v 0.075797 2.568948 0.443462
v 0.075797 2.385260 0.480000
v 0.075797 2.201572 0.443462
v 0.075797 2.045849 0.339411
v 0.075797 1.941798 0.183688
v 0.075797 1.905260 0.000000
v 0.075797 1.941798 -0.183688
v 0.075797 2.045849 -0.339411
v 0.075797 2.201572 -0.443462
v 0.075797 2.145260 -0.251663
v 0.075797 2.385260 -0.275532
v 0.075797 2.625260 -0.251663
v 0.075797 2.125486 0.000000
v 0.075797 2.385260 0.000000
v 0.075797 2.645034 0.000000
v 0.075797 2.145260 0.251663
v 0.075797 2.385260 0.275532
v 0.075797 2.625260 0.251663
v 0.066197 2.385260 -0.480000
v 0.066197 2.568948 -0.443462
v 0.066197 2.724671 -0.339411
v 0.066197 2.828722 -0.183688
v 0.066197 2.865260 0.000000
v 0.066197 2.828722 0.183688
v 0.066197 2.724671 0.339411
v 0.066197 2.568948 0.443462
v 0.066197 2.385260 0.480000
v 0.066197 2.201572 0.443462
v 0.066197 2.045849 0.339411
v 0.066197 1.941798 0.183688
v 0.066197 1.905260 0.000000
v 0.066197 1.941798 -0.183688
v 0.066197 2.045849 -0.339411
v 0.066197 2.201572 -0.443462
v 0.066197 2.145260 -0.251663
v 0.066197 2.385260 -0.275532
v 0.066197 2.625260 -0.251663
v 0.066197 2.125486 0.000000
v 0.066197 2.385260 0.000000
v 0.066197 2.645034 0.000000
v 0.066197 2.145260 0.251663
v 0.066197 2.385260 0.275532
v 0.066197 2.625260 0.251663
vn 1.0000 -0.0000 -0.0000
vn -1.0000 -0.0000 -0.0000
vn -0.0000 0.1951 -0.9808
vn -0.0000 0.5556 -0.8315
vn -0.0000 0.8315 -0.5556
vn -0.0000 0.9808 -0.1951
vn -0.0000 0.9808 0.1951
vn -0.0000 0.8315 0.5556
vn -0.0000 0.5556 0.8315
vn -0.0000 0.1951 0.9808
vn -0.0000 -0.1951 0.9808
vn -0.0000 -0.5556 0.8315
vn -0.0000 -0.8315 0.5556
vn -0.0000 -0.9808 0.1951
vn -0.0000 -0.9808 -0.1951
vn -0.0000 -0.8315 -0.5556
vn -0.0000 -0.5556 -0.8315
vn -0.0000 -0.1951 -0.9808
vt 0.013856 0.345962
vt 0.115505 0.376549
vt 0.150876 0.484835
vt 0.068554 0.429026
vt 0.249074 0.387947
vt 0.248289 0.504892
vt 0.382783 0.378343
vt 0.345962 0.486144
vt 0.484835 0.349124
vt 0.429026 0.431446
vt -0.004892 0.248289
vt 0.103686 0.249018
vt 0.250000 0.250000
vt 0.396314 0.250982
vt 0.504892 0.251711
vt 0.015165 0.150876
vt 0.117217 0.121657
vt 0.250926 0.112053
vt 0.384495 0.123451
vt 0.486144 0.154038
vt 0.070974 0.068554
vt 0.154038 0.013856
vt 0.251711 -0.004892
vt 0.349124 0.015165
vt 0.431446 0.070974
vt -0.000000 0.700272
vt 0.038060 0.608386
vt 0.108386 0.538060
vt 0.094062 0.651072
vt 0.200272 0.500000
vt 0.223087 0.614701
vt 0.299728 0.500000
vt 0.356210 0.598928
vt 0.391614 0.538060
vt 0.461940 0.608386
vt -0.000000 0.799728
vt 0.106494 0.778545
vt 0.250000 0.750000
vt 0.393506 0.721455
vt 0.500000 0.700272
vt 0.038060 0.891614
vt 0.143790 0.901072
vt 0.276913 0.885299
vt 0.405938 0.848928
vt 0.500000 0.799728
vt 0.108386 0.961940
vt 0.200272 1.000000
vt 0.299728 1.000000
vt 0.391614 0.961940
vt 0.461940 0.891613
vt 0.500000 0.070326
vt 0.500000 0.000000
vt 0.505098 0.000000
vt 0.505098 0.070326
vt 0.500000 0.162212
vt 0.505098 0.162212
vt 0.500000 0.261668
vt 0.505098 0.261668
vt 0.500000 0.353553
vt 0.505098 0.353553
vt 0.500000 0.423880
vt 0.500000 0.353553
vt 0.505098 0.353553
vt 0.505098 0.423880
vt 0.500000 0.515765
vt 0.505098 0.515765
vt 0.500000 0.615221
vt 0.505098 0.615221
vt 0.500000 0.707107
vt 0.505098 0.707107
vt 0.505098 0.070326
vt 0.510196 0.000000
vt 0.510196 0.070326
vt 0.510196 0.162212
vt 0.510196 0.261668
vt 0.510196 0.353553
vt 0.505098 0.423880
vt 0.505098 0.353553
vt 0.510196 0.353553
vt 0.510196 0.423880
vt 0.505098 0.515765
vt 0.510196 0.515765
vt 0.505098 0.615221
vt 0.510196 0.615221
vt 0.505098 0.707107
vt 0.510196 0.707107
s 0
usemtl Material.001
f 32/35/17 33/36/17 30/37/17 31/38/17
f 33/36/17 36/39/17 29/40/17 30/37/17
f 36/39/17 39/41/17 28/42/17 29/40/17
f 39/41/17 26/43/17 27/44/17 28/42/17
f 17/45/17 34/46/17 33/36/17 32/35/17
f 34/46/17 37/47/17 36/39/17 33/36/17
f 37/47/17 40/48/17 39/41/17 36/39/17
f 40/48/17 25/49/17 26/43/17 39/41/17
f 18/50/17 35/51/17 34/46/17 17/45/17
f 35/51/17 38/52/17 37/47/17 34/46/17
f 38/52/17 41/53/17 40/48/17 37/47/17
f 41/53/17 24/54/17 25/49/17 40/48/17
f 19/55/17 20/56/17 35/51/17 18/50/17
f 20/56/17 21/57/17 38/52/17 35/51/17
f 21/57/17 22/58/17 41/53/17 38/52/17
f 22/58/17 23/59/17 24/54/17 41/53/17
f 57/60/18 56/61/18 55/62/18 58/63/18
f 58/63/18 55/62/18 54/64/18 61/65/18
f 61/65/18 54/64/18 53/66/18 64/67/18
f 64/67/18 53/66/18 52/68/18 51/69/18
f 42/70/18 57/60/18 58/63/18 59/71/18
f 59/71/18 58/63/18 61/65/18 62/72/18
f 62/72/18 61/65/18 64/67/18 65/73/18
f 65/73/18 64/67/18 51/69/18 50/74/18
f 43/75/18 42/70/18 59/71/18 60/76/18
f 60/76/18 59/71/18 62/72/18 63/77/18
f 63/77/18 62/72/18 65/73/18 66/78/18
f 66/78/18 65/73/18 50/74/18 49/79/18
f 44/80/18 43/75/18 60/76/18 45/81/18
f 45/81/18 60/76/18 63/77/18 46/82/18
f 46/82/18 63/77/18 66/78/18 47/83/18
f 47/83/18 66/78/18 49/79/18 48/84/18
f 18/85/19 17/86/19 42/87/19 43/88/19
f 19/89/20 18/85/20 43/88/20 44/90/20
f 20/91/21 19/89/21 44/90/21 45/92/21
f 21/93/22 20/91/22 45/92/22 46/94/22
f 22/95/23 21/96/23 46/97/23 47/98/23
f 23/99/24 22/95/24 47/98/24 48/100/24
f 24/101/25 23/99/25 48/100/25 49/102/25
f 25/103/26 24/101/26 49/102/26 50/104/26
f 26/105/27 25/87/27 50/106/27 51/107/27
f 27/90/28 26/105/28 51/107/28 52/108/28
f 28/92/29 27/90/29 52/108/29 53/109/29
f 29/94/30 28/92/30 53/109/30 54/110/30
f 30/111/31 29/112/31 54/113/31 55/114/31
f 31/115/32 30/111/32 55/114/32 56/116/32
f 32/117/33 31/115/33 56/116/33 57/118/33
f 17/119/34 32/117/34 57/118/34 42/120/34
