# Blender 4.5.3 LTS
# www.blender.org
mtllib textured_car.mtl
o Cube
v 0.973777 0.683651 -2.183412
v 0.973777 -0.088535 -2.183412
v 0.973777 0.683651 2.183412
v 0.973777 -0.088535 2.183412
v -0.971046 0.683651 -2.183412
v -0.971046 -0.088535 -2.183412
v -0.971046 0.683651 2.183412
v -0.971046 -0.088535 2.183412
vn -0.0000 1.0000 -0.0000
vn -0.0000 -0.0000 1.0000
vn -1.0000 -0.0000 -0.0000
vn -0.0000 -1.0000 -0.0000
vn 1.0000 -0.0000 -0.0000
vn -0.0000 -0.0000 -1.0000
vt 0.385605 0.291174
vt 0.679788 0.293574
vt 0.654081 0.551575
vt 0.382391 0.549175
vt 0.384109 0.294355
vt 0.679656 0.293347
vt 0.652480 0.547379
vt 0.387146 0.548387
vt 0.045016 0.949980
vt 0.042010 0.767540
vt 0.827454 0.785907
vt 0.816271 0.948183
vt 0.380462 0.296774
vt 0.677056 0.293574
vt 0.654563 0.553175
vt 0.386889 0.549975
vt 0.821047 0.784752
vt 0.815537 0.954158
vt 0.043499 0.941277
vt 0.042936 0.774895
vt 0.381427 0.294006
vt 0.674807 0.290005
vt 0.652314 0.547206
vt 0.383033 0.552007
s 1
usemtl Material.001
f 1/1/1 5/2/1 7/3/1 3/4/1
f 4/5/2 3/6/2 7/7/2 8/8/2
f 8/9/3 7/10/3 5/11/3 6/12/3
f 6/13/4 2/14/4 4/15/4 8/16/4
f 2/17/5 1/18/5 3/19/5 4/20/5
f 6/21/6 5/22/6 1/23/6 2/24/6
o Cube.001
v -0.641327 1.523383 -0.854657
v -0.913802 0.659800 -1.018662
v -0.641327 1.523383 0.317280
v -0.913802 0.659801 0.906322
v 0.671015 1.523383 -0.854657
v 0.927931 0.659800 -1.018662
v 0.671015 1.523383 0.317280
v 0.927931 0.659801 0.906322
vn -0.9537 0.3009 -0.0000
vn -0.0000 0.5635 0.8261
vn 0.9585 0.2851 -0.0000
vn -0.0000 0.1866 -0.9824
vn -0.0000 1.0000 -0.0000
vn -0.0000 -1.0000 -0.0000
vt 0.160922 0.228786
vt 0.027352 0.048621
vt 0.522561 0.035616
vt 0.434410 0.230183
vt 0.154900 0.229568
vt 0.051039 0.026991
vt 0.522157 0.035571
vt 0.434823 0.230147
vt 0.152930 0.221569
vt 0.033744 0.035010
vt 0.517700 0.028304
vt 0.442478 0.226065
vt 0.151214 0.224977
vt 0.035519 0.028874
vt 0.512990 0.028834
vt 0.413390 0.228137
vt 0.385282 0.295174
vt 0.672236 0.290373
vt 0.651349 0.548374
vt 0.385282 0.553175
vt 0.625000 0.500000
vt 0.875000 0.500000
vt 0.875000 0.750000
vt 0.625000 0.750000
s 1
usemtl Material.001
f 9/25/7 10/26/7 12/27/7 11/28/7
f 11/29/8 12/30/8 16/31/8 15/32/8
f 15/33/9 16/34/9 14/35/9 13/36/9
f 13/37/10 14/38/10 10/39/10 9/40/10
f 11/41/11 15/42/11 13/43/11 9/44/11
f 16/45/12 12/46/12 10/47/12 14/48/12
o Cube.002
v -0.971046 -0.460334 1.149853
v -1.073622 -0.460334 1.149853
v -0.971046 0.141574 1.149853
v -1.073622 0.141574 1.149853
v -0.971046 -0.460334 1.732511
v -1.073622 -0.460334 1.732511
v -0.971046 0.141574 1.732511
v -1.073622 0.141574 1.732511
vn -0.0000 -0.0000 -1.0000
vn -0.0000 1.0000 -0.0000
vn -0.0000 -0.0000 1.0000
vn -0.0000 -1.0000 -0.0000
vn 1.0000 -0.0000 -0.0000
vn -1.0000 -0.0000 -0.0000
vt 0.166128 0.529667
vt 0.205648 0.529667
vt 0.205648 0.569188
vt 0.166128 0.569188
vt 0.205648 0.608709
vt 0.166128 0.608709
vt 0.205648 0.648230
vt 0.166128 0.648230
vt 0.205648 0.687751
vt 0.166128 0.687751
vt 0.126607 0.608709
vt 0.126607 0.648230
vt 0.245169 0.608709
vt 0.245169 0.648230
s 1
usemtl Material.001
f 17/49/13 18/50/13 20/51/13 19/52/13
f 19/52/14 20/51/14 24/53/14 23/54/14
f 23/54/15 24/53/15 22/55/15 21/56/15
f 21/56/16 22/55/16 18/57/16 17/58/16
f 19/59/17 23/54/17 21/56/17 17/60/17
f 24/53/18 20/61/18 18/62/18 22/55/18
o Cube.003
v -0.971046 -0.460334 -1.810000
v -1.073622 -0.460334 -1.810000
v -0.971046 0.141574 -1.810000
v -1.073622 0.141574 -1.810000
v -0.971046 -0.460334 -1.227342
v -1.073622 -0.460334 -1.227342
v -0.971046 0.141574 -1.227342
v -1.073622 0.141574 -1.227342
vn -0.0000 -0.0000 -1.0000
vn -0.0000 1.0000 -0.0000
vn -0.0000 -0.0000 1.0000
vn -0.0000 -1.0000 -0.0000
vn 1.0000 -0.0000 -0.0000
vn -1.0000 -0.0000 -0.0000
vt 0.153847 0.550470
vt 0.192334 0.550470
vt 0.192334 0.588957
vt 0.153847 0.588957
vt 0.192334 0.627444
vt 0.153847 0.627444
vt 0.192334 0.665931
vt 0.153847 0.665931
vt 0.192334 0.704419
vt 0.153847 0.704419
vt 0.115360 0.627444
vt 0.115360 0.665931
vt 0.230822 0.627444
vt 0.230822 0.665931
s 1
usemtl Material.001
f 25/63/19 26/64/19 28/65/19 27/66/19
f 27/66/20 28/65/20 32/67/20 31/68/20
f 31/68/21 32/67/21 30/69/21 29/70/21
f 29/70/22 30/69/22 26/71/22 25/72/22
f 27/73/23 31/68/23 29/70/23 25/74/23
f 32/67/24 28/75/24 26/76/24 30/69/24
o Cube.004
v 1.065627 -0.460334 -1.810000
v 0.963051 -0.460334 -1.810000
v 1.065627 0.141574 -1.810000
v 0.963051 0.141574 -1.810000
v 1.065627 -0.460334 -1.227342
v 0.963051 -0.460334 -1.227342
v 1.065627 0.141574 -1.227342
v 0.963051 0.141574 -1.227342
vn -0.0000 -0.0000 -1.0000
vn -0.0000 1.0000 -0.0000
vn -0.0000 -0.0000 1.0000
vn -0.0000 -1.0000 -0.0000
vn 1.0000 -0.0000 -0.0000
vn -1.0000 -0.0000 -0.0000
vt 0.180503 0.556328
vt 0.225025 0.556328
vt 0.225025 0.581771
vt 0.180503 0.581771
vt 0.225025 0.607214
vt 0.180503 0.607214
vt 0.225025 0.632656
vt 0.180503 0.632656
vt 0.225025 0.658099
vt 0.180503 0.658099
vt 0.135982 0.607214
vt 0.135982 0.632656
vt 0.269546 0.607214
vt 0.269546 0.632656
s 1
usemtl Material.001
f 33/77/25 34/78/25 36/79/25 35/80/25
f 35/80/26 36/79/26 40/81/26 39/82/26
f 39/82/27 40/81/27 38/83/27 37/84/27
f 37/84/28 38/83/28 34/85/28 33/86/28
f 35/87/29 39/82/29 37/84/29 33/88/29
f 40/81/30 36/89/30 34/90/30 38/83/30
o Cube.005
v 1.065627 -0.460334 1.149853
v 0.963051 -0.460334 1.149853
v 1.065627 0.141574 1.149853
v 0.963051 0.141574 1.149853
v 1.065627 -0.460334 1.732511
v 0.963051 -0.460334 1.732511
v 1.065627 0.141574 1.732511
v 0.963051 0.141574 1.732511
vn -0.0000 -0.0000 -1.0000
vn -0.0000 1.0000 -0.0000
vn -0.0000 -0.0000 1.0000
vn -0.0000 -1.0000 -0.0000
vn 1.0000 -0.0000 -0.0000
vn -1.0000 -0.0000 -0.0000
vt 0.085797 0.523266
vt 0.284384 0.532867
vt 0.277957 0.707658
vt 0.092224 0.715659
vt 0.106042 0.517602
vt 0.294666 0.517602
vt 0.083525 0.559331
vt 0.286656 0.559331
vt 0.286656 0.693870
vt 0.083525 0.693870
vt 0.077764 0.513170
vt 0.305270 0.529172
vt 0.268317 0.702362
vt 0.079371 0.723165
vt 0.092866 0.508001
vt 0.265746 0.711595
vt 0.094473 0.703594
vt 0.080335 0.506401
vt 0.270888 0.516002
vt 0.278921 0.714796
vt 0.088368 0.705194
s 1
usemtl Material.001
f 41/91/31 42/92/31 44/93/31 43/94/31
f 43/94/32 44/93/32 48/95/32 47/96/32
f 47/97/33 48/98/33 46/99/33 45/100/33
f 45/101/34 46/102/34 42/103/34 41/104/34
f 43/105/35 47/96/35 45/106/35 41/107/35
f 48/108/36 44/109/36 42/110/36 46/111/36
o Cube.006
v -0.448934 0.356681 2.183413
v -0.448934 0.356681 2.282861
v -0.816149 0.356681 2.183413
v -0.816149 0.356681 2.282861
v -0.448934 0.546578 2.183413
v -0.448934 0.546578 2.282861
v -0.816149 0.546578 2.183413
v -0.816149 0.546578 2.282861
vn -0.0000 -1.0000 -0.0000
vn -1.0000 -0.0000 -0.0000
vn -0.0000 1.0000 -0.0000
vn 1.0000 -0.0000 -0.0000
vn -0.0000 -0.0000 -1.0000
vn -0.0000 -0.0000 1.0000
vt 0.391067 0.292837
vt 0.641067 0.292837
vt 0.641067 0.542837
vt 0.391067 0.542837
vt 0.396255 0.298387
vt 0.646255 0.298387
vt 0.646255 0.548387
vt 0.396255 0.548387
vt 0.389170 0.305444
vt 0.639170 0.305444
vt 0.639170 0.555444
vt 0.389170 0.555444
vt 0.402314 0.295542
vt 0.652314 0.295542
vt 0.652314 0.545543
vt 0.402314 0.545543
vt 0.125000 0.500000
vt 0.375000 0.500000
vt 0.375000 0.750000
vt 0.125000 0.750000
vt 0.399622 0.707974
vt 0.397960 0.612220
vt 0.621633 0.611582
vt 0.623295 0.707337
s 1
usemtl Material.001
f 49/112/37 50/113/37 52/114/37 51/115/37
f 51/116/38 52/117/38 56/118/38 55/119/38
f 55/120/39 56/121/39 54/122/39 53/123/39
f 53/124/40 54/125/40 50/126/40 49/127/40
f 51/128/41 55/129/41 53/130/41 49/131/41
f 56/132/42 52/133/42 50/134/42 54/135/42
o Cube.007
v 0.754398 0.356681 2.183413
v 0.754398 0.356681 2.282861
v 0.387183 0.356681 2.183413
v 0.387183 0.356681 2.282861
v 0.754398 0.546578 2.183413
v 0.754398 0.546578 2.282861
v 0.387183 0.546578 2.183413
v 0.387183 0.546578 2.282861
vn -0.0000 -1.0000 -0.0000
vn -1.0000 -0.0000 -0.0000
vn -0.0000 1.0000 -0.0000
vn 1.0000 -0.0000 -0.0000
vn -0.0000 -0.0000 -1.0000
vn -0.0000 -0.0000 1.0000
vt 0.395243 0.298387
vt 0.645243 0.298387
vt 0.645243 0.548387
vt 0.395243 0.548387
vt 0.399291 0.288306
vt 0.649292 0.288306
vt 0.649292 0.538306
vt 0.399291 0.538306
vt 0.399291 0.292339
vt 0.649292 0.292339
vt 0.649292 0.542339
vt 0.399291 0.542339
vt 0.401316 0.290323
vt 0.651316 0.290323
vt 0.651316 0.540323
vt 0.401316 0.540323
vt 0.125000 0.500000
vt 0.375000 0.500000
vt 0.375000 0.750000
vt 0.125000 0.750000
vt 0.611345 0.609380
vt 0.616388 0.699098
vt 0.401813 0.704128
vt 0.400819 0.614411
s 1
usemtl Material.001
f 57/136/43 58/137/43 60/138/43 59/139/43
f 59/140/44 60/141/44 64/142/44 63/143/44
f 63/144/45 64/145/45 62/146/45 61/147/45
f 61/148/46 62/149/46 58/150/46 57/151/46
f 59/152/47 63/153/47 61/154/47 57/155/47
f 64/156/48 60/157/48 58/158/48 62/159/48
o Cube.008
v 0.754398 0.356681 -2.268868
v 0.754398 0.356681 -2.169421
v 0.387183 0.356681 -2.268868
v 0.387183 0.356681 -2.169421
v 0.754398 0.546578 -2.268868
v 0.754398 0.546578 -2.169421
v 0.387183 0.546578 -2.268868
v 0.387183 0.546578 -2.169421
vn -0.0000 -1.0000 -0.0000
vn -1.0000 -0.0000 -0.0000
vn -0.0000 1.0000 -0.0000
vn 1.0000 -0.0000 -0.0000
vn -0.0000 -0.0000 -1.0000
vn -0.0000 -0.0000 1.0000
vt 0.399100 0.288036
vt 0.649100 0.288036
vt 0.649100 0.538036
vt 0.399100 0.538036
vt 0.392673 0.298006
vt 0.642673 0.298006
vt 0.642673 0.548006
vt 0.392673 0.548006
vt 0.394280 0.296774
vt 0.644280 0.296774
vt 0.644280 0.546774
vt 0.394280 0.546774
vt 0.185081 0.588360
vt 0.229603 0.588360
vt 0.229603 0.613803
vt 0.185081 0.613803
vt 0.742937 0.119173
vt 0.747139 0.228937
vt 0.545944 0.233114
vt 0.541741 0.123349
vt 0.625000 0.500000
vt 0.875000 0.500000
vt 0.875000 0.750000
vt 0.625000 0.750000
s 1
usemtl Material.001
f 65/160/49 66/161/49 68/162/49 67/163/49
f 67/164/50 68/165/50 72/166/50 71/167/50
f 71/168/51 72/169/51 70/170/51 69/171/51
f 69/172/52 70/173/52 66/174/52 65/175/52
f 67/176/53 71/177/53 69/178/53 65/179/53
f 72/180/54 68/181/54 66/182/54 70/183/54
o Cube.009
v -0.429594 0.356681 -2.268868
v -0.429594 0.356681 -2.169421
v -0.796808 0.356681 -2.268868
v -0.796808 0.356681 -2.169421
v -0.429594 0.546578 -2.268868
v -0.429594 0.546578 -2.169421
v -0.796808 0.546578 -2.268868
v -0.796808 0.546578 -2.169421
vn -0.0000 -1.0000 -0.0000
vn -1.0000 -0.0000 -0.0000
vn -0.0000 1.0000 -0.0000
vn 1.0000 -0.0000 -0.0000
vn -0.0000 -0.0000 -1.0000
vn -0.0000 -0.0000 1.0000
vt 0.384640 0.296037
vt 0.634640 0.296037
vt 0.634640 0.546037
vt 0.384640 0.546037
vt 0.391067 0.301206
vt 0.641067 0.301206
vt 0.641067 0.551206
vt 0.391067 0.551206
vt 0.395887 0.293574
vt 0.645887 0.293574
vt 0.645887 0.543574
vt 0.395887 0.543574
vt 0.394280 0.301943
vt 0.644280 0.301943
vt 0.644280 0.551943
vt 0.394280 0.551943
vt 0.542706 0.229903
vt 0.536938 0.121731
vt 0.742961 0.127184
vt 0.737482 0.227355
vt 0.625000 0.500000
vt 0.875000 0.500000
vt 0.875000 0.750000
vt 0.625000 0.750000
s 1
usemtl Material.001
f 73/184/55 74/185/55 76/186/55 75/187/55
f 75/188/56 76/189/56 80/190/56 79/191/56
f 79/192/57 80/193/57 78/194/57 77/195/57
f 77/196/58 78/197/58 74/198/58 73/199/58
f 75/200/59 79/201/59 77/202/59 73/203/59
f 80/204/60 76/205/60 74/206/60 78/207/60
